<?xml version="1.0" encoding="UTF-8"?>
<svg width="1198" height="382" viewBox="0 0 1198 382" xmlns="http://www.w3.org/2000/svg" style="background-color: #ffffff;">
<defs>
  <marker id="arrowhead" markerWidth="8" markerHeight="8" refX="5" refY="5" orient="auto" markerUnits="userSpaceOnUse" viewBox="0 0 10 10">
    <path d="M 0 0 L 10 5 L 0 10 z" fill="#333333" stroke="#333333" stroke-width="1"/>
  </marker>
  <marker id="arrowhead-thick" markerWidth="11" markerHeight="11" refX="5" refY="5" orient="auto" markerUnits="userSpaceOnUse" viewBox="0 0 10 10">
    <path d="M 0 0 L 10 5 L 0 10 z" fill="#333333" stroke="#333333" stroke-width="1"/>
  </marker>
</defs>
<path d="M647.0,39.2L558.7,47.1C470.3,55.1 293.7,71.1 205.3,82.5C117.0,94.0 117.0,101.0 117.0,104.5L117.0,108.0" fill="none" stroke="#333333" stroke-width="1.0" stroke-linecap="round" stroke-linejoin="round" marker-end="url(#arrowhead)"/>
<path d="M647.0,42.8L603.3,50.1C559.7,57.5 472.3,72.3 428.7,83.1C385.0,94.0 385.0,101.0 385.0,104.5L385.0,108.0" fill="none" stroke="#333333" stroke-width="1.0" stroke-linecap="round" stroke-linejoin="round" marker-end="url(#arrowhead)"/>
<path d="M647.8,62.0L640.9,66.2C633.9,70.3 619.9,78.7 613.0,86.3C606.0,94.0 606.0,101.0 606.0,104.5L606.0,108.0" fill="none" stroke="#333333" stroke-width="1.0" stroke-linecap="round" stroke-linejoin="round" marker-end="url(#arrowhead)"/>
<path d="M738.2,62.0L745.1,66.2C752.1,70.3 766.1,78.7 773.0,86.3C780.0,94.0 780.0,101.0 780.0,104.5L780.0,108.0" fill="none" stroke="#333333" stroke-width="1.0" stroke-linecap="round" stroke-linejoin="round" marker-end="url(#arrowhead)"/>
<path d="M739.0,44.2L774.8,51.3C810.7,58.4 882.3,72.7 918.2,83.4C954.0,94.0 954.0,101.0 954.0,104.5L954.0,108.0" fill="none" stroke="#333333" stroke-width="1.0" stroke-linecap="round" stroke-linejoin="round" marker-end="url(#arrowhead)"/>
<path d="M739.0,40.5L803.8,48.2C868.7,56.0 998.3,71.5 1063.2,82.7C1128.0,94.0 1128.0,101.0 1128.0,104.5L1128.0,108.0" fill="none" stroke="#333333" stroke-width="1.0" stroke-linecap="round" stroke-linejoin="round" marker-end="url(#arrowhead)"/>
<path d="M82.2,166.0L76.8,170.2C71.5,174.3 60.7,182.7 55.4,190.3C50.0,198.0 50.0,205.0 50.0,208.5L50.0,212.0" fill="none" stroke="#333333" stroke-width="1.0" stroke-linecap="round" stroke-linejoin="round" marker-end="url(#arrowhead)"/>
<path d="M151.8,166.0L157.2,170.2C162.5,174.3 173.3,182.7 178.6,190.3C184.0,198.0 184.0,205.0 184.0,208.5L184.0,212.0" fill="none" stroke="#333333" stroke-width="1.0" stroke-linecap="round" stroke-linejoin="round" marker-end="url(#arrowhead)"/>
<path d="M350.2,166.0L344.8,170.2C339.5,174.3 328.7,182.7 323.4,190.3C318.0,198.0 318.0,205.0 318.0,208.5L318.0,212.0" fill="none" stroke="#333333" stroke-width="1.0" stroke-linecap="round" stroke-linejoin="round" marker-end="url(#arrowhead)"/>
<path d="M419.8,166.0L425.2,170.2C430.5,174.3 441.3,182.7 446.6,190.3C452.0,198.0 452.0,205.0 452.0,208.5L452.0,212.0" fill="none" stroke="#333333" stroke-width="1.0" stroke-linecap="round" stroke-linejoin="round" marker-end="url(#arrowhead)"/>
<path d="M606.0,166.0L606.0,212.0" fill="none" stroke="#333333" stroke-width="1.0" stroke-linecap="round" stroke-linejoin="round" marker-end="url(#arrowhead)"/>
<path d="M780.0,166.0L780.0,212.0" fill="none" stroke="#333333" stroke-width="1.0" stroke-linecap="round" stroke-linejoin="round" marker-end="url(#arrowhead)"/>
<path d="M954.0,166.0L954.0,212.0" fill="none" stroke="#333333" stroke-width="1.0" stroke-linecap="round" stroke-linejoin="round" marker-end="url(#arrowhead)"/>
<path d="M1128.0,166.0L1128.0,212.0" fill="none" stroke="#333333" stroke-width="1.0" stroke-linecap="round" stroke-linejoin="round" marker-end="url(#arrowhead)"/>
<path d="M50.0,270.0L50.0,274.2C50.0,278.3 50.0,286.7 122.5,298.5C195.0,310.4 340.0,325.8 412.5,333.6L485.0,341.3" fill="none" stroke="#333333" stroke-width="1.0" stroke-linecap="round" stroke-linejoin="round" marker-end="url(#arrowhead)"/>
<path d="M184.0,270.0L184.0,274.2C184.0,278.3 184.0,286.7 234.2,298.2C284.3,309.7 384.7,324.4 434.9,331.7L485.0,339.1" fill="none" stroke="#333333" stroke-width="1.0" stroke-linecap="round" stroke-linejoin="round" marker-end="url(#arrowhead)"/>
<path d="M318.0,270.0L318.0,274.2C318.0,278.3 318.0,286.7 345.9,297.4C373.7,308.1 429.4,321.2 457.3,327.8L485.1,334.3" fill="none" stroke="#333333" stroke-width="1.0" stroke-linecap="round" stroke-linejoin="round" marker-end="url(#arrowhead)"/>
<path d="M452.0,270.0L452.0,274.2C452.0,278.3 452.0,286.7 458.4,294.7C464.8,302.6 477.6,310.3 484.0,314.1L490.4,317.9" fill="none" stroke="#333333" stroke-width="1.0" stroke-linecap="round" stroke-linejoin="round" marker-end="url(#arrowhead)"/>
<path d="M606.0,270.0L606.0,274.2C606.0,278.3 606.0,286.7 601.2,294.6C596.3,302.5 586.6,310.0 581.8,313.8L576.9,317.5" fill="none" stroke="#333333" stroke-width="1.0" stroke-linecap="round" stroke-linejoin="round" marker-end="url(#arrowhead)"/>
<path d="M780.0,270.0L780.0,274.2C780.0,278.3 780.0,286.7 748.8,297.6C717.6,308.5 655.3,321.9 624.1,328.6L592.9,335.4" fill="none" stroke="#333333" stroke-width="1.0" stroke-linecap="round" stroke-linejoin="round" marker-end="url(#arrowhead)"/>
<path d="M954.0,270.0L954.0,274.2C954.0,278.3 954.0,286.7 893.8,298.4C833.7,310.1 713.3,325.2 653.1,332.7L593.0,340.2" fill="none" stroke="#333333" stroke-width="1.0" stroke-linecap="round" stroke-linejoin="round" marker-end="url(#arrowhead)"/>
<path d="M1128.0,270.0L1128.0,274.2C1128.0,278.3 1128.0,286.7 1038.8,298.7C949.7,310.7 771.3,326.5 682.2,334.4L593.0,342.2" fill="none" stroke="#333333" stroke-width="1.0" stroke-linecap="round" stroke-linejoin="round" marker-end="url(#arrowhead)"/>
<rect x="55.0" y="112.0" width="124.0" height="54.0" rx="0.0" fill="#ECECFF" stroke="#9370DB" stroke-width="1"/>
<text text-anchor="middle" dominant-baseline="central" font-family="Trebuchet MS, verdana, arial, sans-serif" font-size="16" fill="#333333">
<tspan x="117.0" y="139.0">Branch A</tspan>
</text>
<rect x="8.0" y="216.0" width="84.0" height="54.0" rx="0.0" fill="#ECECFF" stroke="#9370DB" stroke-width="1"/>
<text text-anchor="middle" dominant-baseline="central" font-family="Trebuchet MS, verdana, arial, sans-serif" font-size="16" fill="#333333">
<tspan x="50.0" y="243.0">A-1</tspan>
</text>
<rect x="142.0" y="216.0" width="84.0" height="54.0" rx="0.0" fill="#ECECFF" stroke="#9370DB" stroke-width="1"/>
<text text-anchor="middle" dominant-baseline="central" font-family="Trebuchet MS, verdana, arial, sans-serif" font-size="16" fill="#333333">
<tspan x="184.0" y="243.0">A-2</tspan>
</text>
<rect x="323.0" y="112.0" width="124.0" height="54.0" rx="0.0" fill="#ECECFF" stroke="#9370DB" stroke-width="1"/>
<text text-anchor="middle" dominant-baseline="central" font-family="Trebuchet MS, verdana, arial, sans-serif" font-size="16" fill="#333333">
<tspan x="385.0" y="139.0">Branch B</tspan>
</text>
<rect x="276.0" y="216.0" width="84.0" height="54.0" rx="0.0" fill="#ECECFF" stroke="#9370DB" stroke-width="1"/>
<text text-anchor="middle" dominant-baseline="central" font-family="Trebuchet MS, verdana, arial, sans-serif" font-size="16" fill="#333333">
<tspan x="318.0" y="243.0">B-1</tspan>
</text>
<rect x="410.0" y="216.0" width="84.0" height="54.0" rx="0.0" fill="#ECECFF" stroke="#9370DB" stroke-width="1"/>
<text text-anchor="middle" dominant-baseline="central" font-family="Trebuchet MS, verdana, arial, sans-serif" font-size="16" fill="#333333">
<tspan x="452.0" y="243.0">B-2</tspan>
</text>
<rect x="544.0" y="112.0" width="124.0" height="54.0" rx="0.0" fill="#ECECFF" stroke="#9370DB" stroke-width="1"/>
<text text-anchor="middle" dominant-baseline="central" font-family="Trebuchet MS, verdana, arial, sans-serif" font-size="16" fill="#333333">
<tspan x="606.0" y="139.0">Branch C</tspan>
</text>
<rect x="564.0" y="216.0" width="84.0" height="54.0" rx="0.0" fill="#ECECFF" stroke="#9370DB" stroke-width="1"/>
<text text-anchor="middle" dominant-baseline="central" font-family="Trebuchet MS, verdana, arial, sans-serif" font-size="16" fill="#333333">
<tspan x="606.0" y="243.0">C-1</tspan>
</text>
<rect x="718.0" y="112.0" width="124.0" height="54.0" rx="0.0" fill="#ECECFF" stroke="#9370DB" stroke-width="1"/>
<text text-anchor="middle" dominant-baseline="central" font-family="Trebuchet MS, verdana, arial, sans-serif" font-size="16" fill="#333333">
<tspan x="780.0" y="139.0">Branch D</tspan>
</text>
<rect x="738.0" y="216.0" width="84.0" height="54.0" rx="0.0" fill="#ECECFF" stroke="#9370DB" stroke-width="1"/>
<text text-anchor="middle" dominant-baseline="central" font-family="Trebuchet MS, verdana, arial, sans-serif" font-size="16" fill="#333333">
<tspan x="780.0" y="243.0">D-1</tspan>
</text>
<rect x="892.0" y="112.0" width="124.0" height="54.0" rx="0.0" fill="#ECECFF" stroke="#9370DB" stroke-width="1"/>
<text text-anchor="middle" dominant-baseline="central" font-family="Trebuchet MS, verdana, arial, sans-serif" font-size="16" fill="#333333">
<tspan x="954.0" y="139.0">Branch E</tspan>
</text>
<rect x="912.0" y="216.0" width="84.0" height="54.0" rx="0.0" fill="#ECECFF" stroke="#9370DB" stroke-width="1"/>
<text text-anchor="middle" dominant-baseline="central" font-family="Trebuchet MS, verdana, arial, sans-serif" font-size="16" fill="#333333">
<tspan x="954.0" y="243.0">E-1</tspan>
</text>
<rect x="489.0" y="320.0" width="100.0" height="54.0" rx="0.0" fill="#ECECFF" stroke="#9370DB" stroke-width="1"/>
<text text-anchor="middle" dominant-baseline="central" font-family="Trebuchet MS, verdana, arial, sans-serif" font-size="16" fill="#333333">
<tspan x="539.0" y="347.0">Merge</tspan>
</text>
<rect x="1066.0" y="112.0" width="124.0" height="54.0" rx="0.0" fill="#ECECFF" stroke="#9370DB" stroke-width="1"/>
<text text-anchor="middle" dominant-baseline="central" font-family="Trebuchet MS, verdana, arial, sans-serif" font-size="16" fill="#333333">
<tspan x="1128.0" y="139.0">Branch F</tspan>
</text>
<rect x="1086.0" y="216.0" width="84.0" height="54.0" rx="0.0" fill="#ECECFF" stroke="#9370DB" stroke-width="1"/>
<text text-anchor="middle" dominant-baseline="central" font-family="Trebuchet MS, verdana, arial, sans-serif" font-size="16" fill="#333333">
<tspan x="1128.0" y="243.0">F-1</tspan>
</text>
<rect x="647.0" y="8.0" width="92.0" height="54.0" rx="0.0" fill="#ECECFF" stroke="#9370DB" stroke-width="1"/>
<text text-anchor="middle" dominant-baseline="central" font-family="Trebuchet MS, verdana, arial, sans-serif" font-size="16" fill="#333333">
<tspan x="693.0" y="35.0">Root</tspan>
</text>
</svg>

