<?xml version="1.0" encoding="UTF-8"?>
<svg width="309" height="556" viewBox="0 0 309 556" xmlns="http://www.w3.org/2000/svg" style="background-color: #ffffff;">
<defs>
  <marker id="arrowhead" markerWidth="8" markerHeight="8" refX="5" refY="5" orient="auto" markerUnits="userSpaceOnUse" viewBox="0 0 10 10">
    <path d="M 0 0 L 10 5 L 0 10 z" fill="#333333" stroke="#333333" stroke-width="1"/>
  </marker>
  <marker id="arrowhead-thick" markerWidth="11" markerHeight="11" refX="5" refY="5" orient="auto" markerUnits="userSpaceOnUse" viewBox="0 0 10 10">
    <path d="M 0 0 L 10 5 L 0 10 z" fill="#333333" stroke="#333333" stroke-width="1"/>
  </marker>
</defs>
<path d="M122.8,62.0L122.8,108.0" fill="none" stroke="#333333" stroke-width="1.0" stroke-linecap="round" stroke-linejoin="round" marker-end="url(#arrowhead)"/>
<path d="M122.8,151.0L122.8,197.0" fill="none" stroke="#333333" stroke-width="1.0" stroke-linecap="round" stroke-linejoin="round" marker-end="url(#arrowhead)"/>
<path d="M105.2,309.5L101.6,318.9C98.0,328.3 90.7,347.2 87.1,362.4C83.5,377.7 83.5,389.3 83.5,395.2L83.5,401.0" fill="none" stroke="#333333" stroke-width="1.0" stroke-linecap="round" stroke-linejoin="round" marker-end="url(#arrowhead)"/>
<path d="M83.5,444.0L83.5,497.5" fill="none" stroke="#333333" stroke-width="1.0" stroke-linecap="round" stroke-linejoin="round" marker-end="url(#arrowhead)"/>
<path d="M25.6,501.5L22.7,500.5C19.8,499.5 13.9,497.5 5.9,492.2C-2.0,486.8 -12.0,478.1 -17.0,469.5C-22.0,460.9 -22.0,452.4 -22.0,439.6C-22.0,426.8 -22.0,409.6 -22.0,392.5C-22.0,375.4 -22.0,358.2 -22.0,345.4C-22.0,332.6 -22.0,324.1 -8.4,315.5C5.2,306.9 32.5,298.2 48.5,292.8C64.6,287.5 69.4,285.6 71.8,284.6L74.2,283.6" fill="none" stroke="#333333" stroke-width="1.0" stroke-linecap="round" stroke-linejoin="round" marker-end="url(#arrowhead)"/>
<path d="M158.3,291.4L174.4,303.9C190.5,316.3 222.8,341.1 238.9,359.4C255.0,377.7 255.0,389.3 255.0,395.2L255.0,401.0" fill="none" stroke="#333333" stroke-width="1.0" stroke-linecap="round" stroke-linejoin="round" marker-end="url(#arrowhead)"/>
<path d="M255.0,444.0L255.0,490.0" fill="none" stroke="#333333" stroke-width="1.0" stroke-linecap="round" stroke-linejoin="round" marker-end="url(#arrowhead)"/>
<rect x="211.5" y="405.0" width="87.0" height="39.0" fill="#ECECFF" stroke="#9370DB" stroke-width="1"/>
<line x1="219.5" y1="405.0" x2="219.5" y2="444.0" stroke="#9370DB" stroke-width="1"/>
<line x1="290.5" y1="405.0" x2="290.5" y2="444.0" stroke="#9370DB" stroke-width="1"/>
<text text-anchor="middle" dominant-baseline="central" font-family="Trebuchet MS, verdana, arial, sans-serif" font-size="16" fill="#333333">
<tspan x="255.0" y="424.5">Cleanup</tspan>
</text>
<rect x="209.0" y="494.0" width="92.0" height="54.0" rx="0.0" fill="#ECECFF" stroke="#9370DB" stroke-width="1"/>
<text text-anchor="middle" dominant-baseline="central" font-family="Trebuchet MS, verdana, arial, sans-serif" font-size="16" fill="#333333">
<tspan x="255.0" y="521.0">Exit</tspan>
</text>
<rect x="67.2" y="112.0" width="111.0" height="39.0" fill="#ECECFF" stroke="#9370DB" stroke-width="1"/>
<line x1="75.2" y1="112.0" x2="75.2" y2="151.0" stroke="#9370DB" stroke-width="1"/>
<line x1="170.2" y1="112.0" x2="170.2" y2="151.0" stroke="#9370DB" stroke-width="1"/>
<text text-anchor="middle" dominant-baseline="central" font-family="Trebuchet MS, verdana, arial, sans-serif" font-size="16" fill="#333333">
<tspan x="122.8" y="131.5">Initialize</tspan>
</text>
<polygon points="122.8,201.0 185.8,264.0 122.8,327.0 59.8,264.0" fill="#ECECFF" stroke="#9370DB" stroke-width="1"/>
<text text-anchor="middle" dominant-baseline="central" font-family="Trebuchet MS, verdana, arial, sans-serif" font-size="16" fill="#333333">
<tspan x="122.8" y="264.0">Continue?</tspan>
</text>
<rect x="44.8" y="8.0" width="156.0" height="54.0" rx="0.0" fill="#ECECFF" stroke="#9370DB" stroke-width="1"/>
<text text-anchor="middle" dominant-baseline="central" font-family="Trebuchet MS, verdana, arial, sans-serif" font-size="16" fill="#333333">
<tspan x="122.8" y="35.0">Main Program</tspan>
</text>
<rect x="20.0" y="405.0" width="127.0" height="39.0" fill="#ECECFF" stroke="#9370DB" stroke-width="1"/>
<line x1="28.0" y1="405.0" x2="28.0" y2="444.0" stroke="#9370DB" stroke-width="1"/>
<line x1="139.0" y1="405.0" x2="139.0" y2="444.0" stroke="#9370DB" stroke-width="1"/>
<text text-anchor="middle" dominant-baseline="central" font-family="Trebuchet MS, verdana, arial, sans-serif" font-size="16" fill="#333333">
<tspan x="83.5" y="424.5">Process Item</tspan>
</text>
<rect x="8.0" y="501.5" width="151.0" height="39.0" fill="#ECECFF" stroke="#9370DB" stroke-width="1"/>
<line x1="16.0" y1="501.5" x2="16.0" y2="540.5" stroke="#9370DB" stroke-width="1"/>
<line x1="151.0" y1="501.5" x2="151.0" y2="540.5" stroke="#9370DB" stroke-width="1"/>
<text text-anchor="middle" dominant-baseline="central" font-family="Trebuchet MS, verdana, arial, sans-serif" font-size="16" fill="#333333">
<tspan x="83.5" y="521.0">Validate Result</tspan>
</text>
<rect x="69.5" y="352.0" width="28.0" height="28.0" fill="rgba(232,232,232,0.8)" rx="2"/>
<text text-anchor="middle" dominant-baseline="central" font-family="Trebuchet MS, verdana, arial, sans-serif" font-size="16" fill="#333333">
<tspan x="83.5" y="366.0">Yes</tspan>
</text>
<rect x="245.0" y="352.0" width="20.0" height="28.0" fill="rgba(232,232,232,0.8)" rx="2"/>
<text text-anchor="middle" dominant-baseline="central" font-family="Trebuchet MS, verdana, arial, sans-serif" font-size="16" fill="#333333">
<tspan x="255.0" y="366.0">No</tspan>
</text>
</svg>

