<svg xmlns="http://www.w3.org/2000/svg" viewBox="0 0 500 500"><rect x="0" y="0" width="500" height="500" fill="#ffffff"/><rect x="263.0" y="45.0" width="232.0" height="212.0" fill="#ECECFF"/><rect x="31.0" y="45.0" width="232.0" height="212.0" fill="#F1F1FF"/><rect x="31.0" y="257.0" width="232.0" height="212.0" fill="#F6F6FF"/><rect x="263.0" y="257.0" width="232.0" height="212.0" fill="#FBFBFF"/><text x="379.0" y="50.0" text-anchor="middle" dominant-baseline="hanging" font-family="trebuchet ms,verdana,arial,sans-serif" font-size="16" fill="#333333">High impact</text><text x="147.0" y="50.0" text-anchor="middle" dominant-baseline="hanging" font-family="trebuchet ms,verdana,arial,sans-serif" font-size="16" fill="#333333">Viral</text><text x="147.0" y="262.0" text-anchor="middle" dominant-baseline="hanging" font-family="trebuchet ms,verdana,arial,sans-serif" font-size="16" fill="#333333">Niche</text><text x="379.0" y="262.0" text-anchor="middle" dominant-baseline="hanging" font-family="trebuchet ms,verdana,arial,sans-serif" font-size="16" fill="#333333">Broad but shallow</text><line x1="30.0" y1="45.0" x2="496.0" y2="45.0" stroke="#C7C7F1" stroke-width="2"/><line x1="495.0" y1="46.0" x2="495.0" y2="468.0" stroke="#C7C7F1" stroke-width="2"/><line x1="30.0" y1="469.0" x2="496.0" y2="469.0" stroke="#C7C7F1" stroke-width="2"/><line x1="31.0" y1="46.0" x2="31.0" y2="468.0" stroke="#C7C7F1" stroke-width="2"/><line x1="263.0" y1="46.0" x2="263.0" y2="468.0" stroke="#C7C7F1" stroke-width="1"/><line x1="32.0" y1="257.0" x2="494.0" y2="257.0" stroke="#C7C7F1" stroke-width="1"/><text x="147.0" y="479.0" text-anchor="middle" dominant-baseline="hanging" font-family="trebuchet ms,verdana,arial,sans-serif" font-size="16" fill="#333333">Low Reach</text><text x="379.0" y="479.0" text-anchor="middle" dominant-baseline="hanging" font-family="trebuchet ms,verdana,arial,sans-serif" font-size="16" fill="#333333">High Reach</text><text x="0" y="0" text-anchor="middle" dominant-baseline="hanging" font-family="trebuchet ms,verdana,arial,sans-serif" font-size="16" fill="#333333" transform="translate(5.0, 363.0) rotate(-90)">Low Engagement</text><text x="0" y="0" text-anchor="middle" dominant-baseline="hanging" font-family="trebuchet ms,verdana,arial,sans-serif" font-size="16" fill="#333333" transform="translate(5.0, 151.0) rotate(-90)">High Engagement</text><text x="250.0" y="10.0" text-anchor="middle" dominant-baseline="hanging" font-family="trebuchet ms,verdana,arial,sans-serif" font-size="20" fill="#333333">Reach and engagement</text><circle cx="170.2" cy="214.6" r="5" fill="#333333" stroke="#333333" stroke-width="0"/><text x="0" y="0" text-anchor="middle" dominant-baseline="hanging" font-family="trebuchet ms,verdana,arial,sans-serif" font-size="12" fill="#333333" transform="translate(170.2, 219.6)">Post A</text><circle cx="402.2" cy="384.2" r="5" fill="#333333" stroke="#333333" stroke-width="0"/><text x="0" y="0" text-anchor="middle" dominant-baseline="hanging" font-family="trebuchet ms,verdana,arial,sans-serif" font-size="12" fill="#333333" transform="translate(402.2, 389.2)">Post B</text></svg>
