<?xml version="1.0" encoding="UTF-8"?>
<svg width="352" height="651" viewBox="0 0 352 651" xmlns="http://www.w3.org/2000/svg" style="background-color: #ffffff;">
<defs>
  <marker id="arrowhead" markerWidth="8" markerHeight="8" refX="5" refY="5" orient="auto" markerUnits="userSpaceOnUse" viewBox="0 0 10 10">
    <path d="M 0 0 L 10 5 L 0 10 z" fill="#333333" stroke="#333333" stroke-width="1"/>
  </marker>
  <marker id="arrowhead-thick" markerWidth="11" markerHeight="11" refX="5" refY="5" orient="auto" markerUnits="userSpaceOnUse" viewBox="0 0 10 10">
    <path d="M 0 0 L 10 5 L 0 10 z" fill="#333333" stroke="#333333" stroke-width="1"/>
  </marker>
</defs>
<path d="M164.8,63.0L164.8,109.0" fill="none" stroke="#333333" stroke-width="1.0" stroke-linecap="round" stroke-linejoin="round" marker-end="url(#arrowhead)"/>
<path d="M164.8,167.0L164.8,213.0" fill="none" stroke="#333333" stroke-width="1.0" stroke-linecap="round" stroke-linejoin="round" marker-end="url(#arrowhead)"/>
<path d="M138.5,292.6L126.8,303.5C115.1,314.4 91.7,336.2 80.1,352.9C68.4,369.7 68.4,381.3 68.4,387.2L68.4,393.0" fill="none" stroke="#333333" stroke-width="1.0" stroke-linecap="round" stroke-linejoin="round" marker-end="url(#arrowhead)"/>
<path d="M191.2,292.6L202.9,303.5C214.6,314.4 237.9,336.2 249.6,352.9C261.3,369.7 261.3,381.3 261.3,387.2L261.3,393.0" fill="none" stroke="#333333" stroke-width="1.0" stroke-linecap="round" stroke-linejoin="round" marker-end="url(#arrowhead)"/>
<path d="M68.4,436.0L68.4,482.0" fill="none" stroke="#333333" stroke-width="1.0" stroke-linecap="round" stroke-linejoin="round" marker-end="url(#arrowhead)"/>
<path d="M261.3,436.0L261.3,496.5" fill="none" stroke="#333333" stroke-width="1.0" stroke-linecap="round" stroke-linejoin="round" marker-end="url(#arrowhead)"/>
<path d="M68.4,554.0L68.4,558.2C68.4,562.3 68.4,570.7 80.9,580.6C93.4,590.6 118.5,602.1 131.0,607.9L143.5,613.7" fill="none" stroke="#333333" stroke-width="1.0" stroke-linecap="round" stroke-linejoin="round" marker-end="url(#arrowhead)"/>
<path d="M261.3,539.5L261.3,546.1C261.3,552.7 261.3,565.8 248.8,578.2C236.3,590.6 211.2,602.1 198.7,607.9L186.2,613.7" fill="none" stroke="#333333" stroke-width="1.0" stroke-linecap="round" stroke-linejoin="round" marker-end="url(#arrowhead)"/>
<circle cx="164.8" cy="623.5" r="19.5" fill="#ECECFF" stroke="#9370DB" stroke-width="1"/>
<text text-anchor="middle" dominant-baseline="central" font-family="Trebuchet MS, verdana, arial, sans-serif" font-size="16" fill="#333333">
<tspan x="164.8" y="623.5">End</tspan>
</text>
<polygon points="191.7,397.0 330.8,397.0 343.8,416.5 330.8,436.0 191.7,436.0 178.7,416.5" fill="#ECECFF" stroke="#9370DB" stroke-width="1"/>
<text text-anchor="middle" dominant-baseline="central" font-family="Trebuchet MS, verdana, arial, sans-serif" font-size="16" fill="#333333">
<tspan x="261.3" y="416.5">Error Handler</tspan>
</text>
<rect x="98.8" y="113.0" width="132.0" height="54.0" rx="0.0" fill="#ECECFF" stroke="#9370DB" stroke-width="1"/>
<text text-anchor="middle" dominant-baseline="central" font-family="Trebuchet MS, verdana, arial, sans-serif" font-size="16" fill="#333333">
<tspan x="164.8" y="140.0">Get Input</tspan>
</text>
<rect x="209.8" y="500.5" width="103.0" height="39.0" fill="#ECECFF" stroke="#9370DB" stroke-width="1"/>
<line x1="217.8" y1="500.5" x2="217.8" y2="539.5" stroke="#9370DB" stroke-width="1"/>
<line x1="304.8" y1="500.5" x2="304.8" y2="539.5" stroke="#9370DB" stroke-width="1"/>
<text text-anchor="middle" dominant-baseline="central" font-family="Trebuchet MS, verdana, arial, sans-serif" font-size="16" fill="#333333">
<tspan x="261.3" y="520.0">Log Error</tspan>
</text>
<rect x="8.0" y="397.0" width="120.8" height="39.0" rx="19.5" fill="#ECECFF" stroke="#9370DB" stroke-width="1"/>
<text text-anchor="middle" dominant-baseline="central" font-family="Trebuchet MS, verdana, arial, sans-serif" font-size="16" fill="#333333">
<tspan x="68.4" y="416.5">Process Data</tspan>
</text>
<circle cx="164.8" cy="35.5" r="27.5" fill="#ECECFF" stroke="#9370DB" stroke-width="1"/>
<text text-anchor="middle" dominant-baseline="central" font-family="Trebuchet MS, verdana, arial, sans-serif" font-size="16" fill="#333333">
<tspan x="164.8" y="35.5">Start</tspan>
</text>
<path d="M 28.9 495.9 L 28.9 544.1 A 39.5 9.9 0 0 0 107.9 544.1 L 107.9 495.9 A 39.5 9.9 0 0 0 28.9 495.9 Z" fill="#ECECFF" stroke="#9370DB" stroke-width="1"/>
<ellipse cx="68.4" cy="495.9" rx="39.5" ry="9.9" fill="#ECECFF" stroke="#9370DB" stroke-width="1"/>
<text text-anchor="middle" dominant-baseline="central" font-family="Trebuchet MS, verdana, arial, sans-serif" font-size="16" fill="#333333">
<tspan x="68.4" y="520.0">Database</tspan>
</text>
<polygon points="164.8,217.0 215.8,268.0 164.8,319.0 113.8,268.0" fill="#ECECFF" stroke="#9370DB" stroke-width="1"/>
<text text-anchor="middle" dominant-baseline="central" font-family="Trebuchet MS, verdana, arial, sans-serif" font-size="16" fill="#333333">
<tspan x="164.8" y="268.0">Valid?</tspan>
</text>
<rect x="54.4" y="344.0" width="28.0" height="28.0" fill="rgba(232,232,232,0.8)" rx="2"/>
<text text-anchor="middle" dominant-baseline="central" font-family="Trebuchet MS, verdana, arial, sans-serif" font-size="16" fill="#333333">
<tspan x="68.4" y="358.0">Yes</tspan>
</text>
<rect x="251.3" y="344.0" width="20.0" height="28.0" fill="rgba(232,232,232,0.8)" rx="2"/>
<text text-anchor="middle" dominant-baseline="central" font-family="Trebuchet MS, verdana, arial, sans-serif" font-size="16" fill="#333333">
<tspan x="261.3" y="358.0">No</tspan>
</text>
</svg>

