<svg id="my-svg" width="100%" xmlns="http://www.w3.org/2000/svg" xmlns:xlink="http://www.w3.org/1999/xlink" class="classDiagram" style="max-width: 519.656px; background-color: white;" viewBox="0 0 519.65625 166" role="graphics-document document" aria-roledescription="class"><style>#my-svg{font-family:"trebuchet ms",verdana,arial,sans-serif;font-size:16px;fill:#333;}@keyframes edge-animation-frame{from{stroke-dashoffset:0;}}@keyframes dash{to{stroke-dashoffset:0;}}#my-svg .edge-animation-slow{stroke-dasharray:9,5!important;stroke-dashoffset:900;animation:dash 50s linear infinite;stroke-linecap:round;}#my-svg .edge-animation-fast{stroke-dasharray:9,5!important;stroke-dashoffset:900;animation:dash 20s linear infinite;stroke-linecap:round;}#my-svg .error-icon{fill:#552222;}#my-svg .error-text{fill:#552222;stroke:#552222;}#my-svg .edge-thickness-normal{stroke-width:1px;}#my-svg .edge-thickness-thick{stroke-width:3.5px;}#my-svg .edge-pattern-solid{stroke-dasharray:0;}#my-svg .edge-thickness-invisible{stroke-width:0;fill:none;}#my-svg .edge-pattern-dashed{stroke-dasharray:3;}#my-svg .edge-pattern-dotted{stroke-dasharray:2;}#my-svg .marker{fill:#333333;stroke:#333333;}#my-svg .marker.cross{stroke:#333333;}#my-svg svg{font-family:"trebuchet ms",verdana,arial,sans-serif;font-size:16px;}#my-svg p{margin:0;}#my-svg g.classGroup text{fill:#9370DB;stroke:none;font-family:"trebuchet ms",verdana,arial,sans-serif;font-size:10px;}#my-svg g.classGroup text .title{font-weight:bolder;}#my-svg .nodeLabel,#my-svg .edgeLabel{color:#131300;}#my-svg .edgeLabel .label rect{fill:#ECECFF;}#my-svg .label text{fill:#131300;}#my-svg .labelBkg{background:#ECECFF;}#my-svg .edgeLabel .label span{background:#ECECFF;}#my-svg .classTitle{font-weight:bolder;}#my-svg .node rect,#my-svg .node circle,#my-svg .node ellipse,#my-svg .node polygon,#my-svg .node path{fill:#ECECFF;stroke:#9370DB;stroke-width:1px;}#my-svg .divider{stroke:#9370DB;stroke-width:1;}#my-svg g.clickable{cursor:pointer;}#my-svg g.classGroup rect{fill:#ECECFF;stroke:#9370DB;}#my-svg g.classGroup line{stroke:#9370DB;stroke-width:1;}#my-svg .classLabel .box{stroke:none;stroke-width:0;fill:#ECECFF;opacity:0.5;}#my-svg .classLabel .label{fill:#9370DB;font-size:10px;}#my-svg .relation{stroke:#333333;stroke-width:1;fill:none;}#my-svg .dashed-line{stroke-dasharray:3;}#my-svg .dotted-line{stroke-dasharray:1 2;}#my-svg #compositionStart,#my-svg .composition{fill:#333333!important;stroke:#333333!important;stroke-width:1;}#my-svg #compositionEnd,#my-svg .composition{fill:#333333!important;stroke:#333333!important;stroke-width:1;}#my-svg #dependencyStart,#my-svg .dependency{fill:#333333!important;stroke:#333333!important;stroke-width:1;}#my-svg #dependencyStart,#my-svg .dependency{fill:#333333!important;stroke:#333333!important;stroke-width:1;}#my-svg #extensionStart,#my-svg .extension{fill:transparent!important;stroke:#333333!important;stroke-width:1;}#my-svg #extensionEnd,#my-svg .extension{fill:transparent!important;stroke:#333333!important;stroke-width:1;}#my-svg #aggregationStart,#my-svg .aggregation{fill:transparent!important;stroke:#333333!important;stroke-width:1;}#my-svg #aggregationEnd,#my-svg .aggregation{fill:transparent!important;stroke:#333333!important;stroke-width:1;}#my-svg #lollipopStart,#my-svg .lollipop{fill:#ECECFF!important;stroke:#333333!important;stroke-width:1;}#my-svg #lollipopEnd,#my-svg .lollipop{fill:#ECECFF!important;stroke:#333333!important;stroke-width:1;}#my-svg .edgeTerminals{font-size:11px;line-height:initial;}#my-svg .classTitleText{text-anchor:middle;font-size:18px;fill:#333;}#my-svg .label-icon{display:inline-block;height:1em;overflow:visible;vertical-align:-0.125em;}#my-svg .node .label-icon path{fill:currentColor;stroke:revert;stroke-width:revert;}#my-svg :root{--mermaid-font-family:"trebuchet ms",verdana,arial,sans-serif;}</style><g><defs><marker id="my-svg_class-aggregationStart" class="marker aggregation class" refX="18" refY="7" markerWidth="190" markerHeight="240" orient="auto"><path d="M 18,7 L9,13 L1,7 L9,1 Z"/></marker></defs><defs><marker id="my-svg_class-aggregationEnd" class="marker aggregation class" refX="1" refY="7" markerWidth="20" markerHeight="28" orient="auto"><path d="M 18,7 L9,13 L1,7 L9,1 Z"/></marker></defs><defs><marker id="my-svg_class-extensionStart" class="marker extension class" refX="18" refY="7" markerWidth="190" markerHeight="240" orient="auto"><path d="M 1,7 L18,13 V 1 Z"/></marker></defs><defs><marker id="my-svg_class-extensionEnd" class="marker extension class" refX="1" refY="7" markerWidth="20" markerHeight="28" orient="auto"><path d="M 1,1 V 13 L18,7 Z"/></marker></defs><defs><marker id="my-svg_class-compositionStart" class="marker composition class" refX="18" refY="7" markerWidth="190" markerHeight="240" orient="auto"><path d="M 18,7 L9,13 L1,7 L9,1 Z"/></marker></defs><defs><marker id="my-svg_class-compositionEnd" class="marker composition class" refX="1" refY="7" markerWidth="20" markerHeight="28" orient="auto"><path d="M 18,7 L9,13 L1,7 L9,1 Z"/></marker></defs><defs><marker id="my-svg_class-dependencyStart" class="marker dependency class" refX="6" refY="7" markerWidth="190" markerHeight="240" orient="auto"><path d="M 5,7 L9,13 L1,7 L9,1 Z"/></marker></defs><defs><marker id="my-svg_class-dependencyEnd" class="marker dependency class" refX="13" refY="7" markerWidth="20" markerHeight="28" orient="auto"><path d="M 18,7 L9,13 L14,7 L9,1 Z"/></marker></defs><defs><marker id="my-svg_class-lollipopStart" class="marker lollipop class" refX="13" refY="7" markerWidth="190" markerHeight="240" orient="auto"><circle stroke="black" fill="transparent" cx="7" cy="7" r="6"/></marker></defs><defs><marker id="my-svg_class-lollipopEnd" class="marker lollipop class" refX="1" refY="7" markerWidth="190" markerHeight="240" orient="auto"><circle stroke="black" fill="transparent" cx="7" cy="7" r="6"/></marker></defs><g class="root"><g class="clusters"/><g class="edgePaths"><path d="M164.719,83L166.01,83C167.302,83,169.885,83,175.344,83C180.802,83,189.135,83,193.302,83L197.469,83" id="id_IService_ApiClient_1" class="edge-thickness-normal edge-pattern-dashed relation" style=";;;" data-edge="true" data-et="edge" data-id="id_IService_ApiClient_1" data-points="W3sieCI6MTQ3LjQ2ODc1LCJ5Ijo4M30seyJ4IjoxNzIuNDY4NzUsInkiOjgzfSx7IngiOjE5Ny40Njg3NSwieSI6ODN9XQ==" marker-start="url(#my-svg_class-extensionStart)"/><path d="M330.016,83L336.717,83C343.419,83,356.823,83,369.227,83C381.63,83,393.034,83,398.736,83L404.438,83" id="id_ApiClient_HttpClient_2" class="edge-thickness-normal edge-pattern-solid relation" style=";;;" data-edge="true" data-et="edge" data-id="id_ApiClient_HttpClient_2" data-points="W3sieCI6MzMwLjAxNTYyNSwieSI6ODN9LHsieCI6MzcwLjIyNjU2MjUsInkiOjgzfSx7IngiOjQxMC40Mzc1LCJ5Ijo4M31d" marker-end="url(#my-svg_class-dependencyEnd)"/></g><g class="edgeLabels"><g class="edgeLabel"><g class="label" data-id="id_IService_ApiClient_1" transform="translate(0, 0)"><foreignObject width="0" height="0"><div xmlns="http://www.w3.org/1999/xhtml" class="labelBkg" style="display: table-cell; white-space: nowrap; line-height: 1.5; max-width: 200px; text-align: center;"><span class="edgeLabel"></span></div></foreignObject></g></g><g class="edgeLabel" transform="translate(370.2265625, 83)"><g class="label" data-id="id_ApiClient_HttpClient_2" transform="translate(-15.2109375, -12)"><foreignObject width="30.421875" height="24"><div xmlns="http://www.w3.org/1999/xhtml" class="labelBkg" style="display: table-cell; white-space: nowrap; line-height: 1.5; max-width: 200px; text-align: center;"><span class="edgeLabel"><p>uses</p></span></div></foreignObject></g></g></g><g class="nodes"><g class="node default" id="classId-HttpClient-0" transform="translate(461.046875, 83)"><g class="basic label-container"><path d="M-50.609375 -42 L50.609375 -42 L50.609375 42 L-50.609375 42" stroke="none" stroke-width="0" fill="#ECECFF" style=""/><path d="M-50.609375 -42 C-16.759976397038805 -42, 17.08942220592239 -42, 50.609375 -42 M-50.609375 -42 C-12.324735693048716 -42, 25.95990361390257 -42, 50.609375 -42 M50.609375 -42 C50.609375 -16.007792644411754, 50.609375 9.984414711176491, 50.609375 42 M50.609375 -42 C50.609375 -12.701303514554535, 50.609375 16.59739297089093, 50.609375 42 M50.609375 42 C26.35468706173003 42, 2.0999991234600586 42, -50.609375 42 M50.609375 42 C29.583902134221958 42, 8.558429268443916 42, -50.609375 42 M-50.609375 42 C-50.609375 24.638918600712667, -50.609375 7.277837201425335, -50.609375 -42 M-50.609375 42 C-50.609375 12.448276143999138, -50.609375 -17.103447712001724, -50.609375 -42" stroke="#9370DB" stroke-width="1.3" fill="none" stroke-dasharray="0 0" style=""/></g><g class="annotation-group text" transform="translate(0, -18)"/><g class="label-group text" transform="translate(-38.609375, -18)"><g class="label" style="font-weight: bolder" transform="translate(0,-12)"><foreignObject width="77.21875" height="24"><div xmlns="http://www.w3.org/1999/xhtml" style="display: table-cell; white-space: nowrap; line-height: 1.5; max-width: 118px; text-align: center;"><span class="nodeLabel markdown-node-label" style=""><p>HttpClient</p></span></div></foreignObject></g></g><g class="members-group text" transform="translate(-38.609375, 30)"/><g class="methods-group text" transform="translate(-38.609375, 60)"/><g class="divider" style=""><path d="M-50.609375 6 C-20.604727294285407 6, 9.399920411429186 6, 50.609375 6 M-50.609375 6 C-19.899457175217822 6, 10.810460649564355 6, 50.609375 6" stroke="#9370DB" stroke-width="1.3" fill="none" stroke-dasharray="0 0" style=""/></g><g class="divider" style=""><path d="M-50.609375 24 C-27.504121246796245 24, -4.3988674935924905 24, 50.609375 24 M-50.609375 24 C-25.223571909722917 24, 0.16223118055416563 24, 50.609375 24" stroke="#9370DB" stroke-width="1.3" fill="none" stroke-dasharray="0 0" style=""/></g></g><g class="node default" id="classId-ApiClient-1" transform="translate(263.7421875, 83)"><g class="basic label-container"><path d="M-66.2734375 -63 L66.2734375 -63 L66.2734375 63 L-66.2734375 63" stroke="none" stroke-width="0" fill="#ECECFF" style=""/><path d="M-66.2734375 -63 C-38.75788589933586 -63, -11.242334298671722 -63, 66.2734375 -63 M-66.2734375 -63 C-13.667001417110704 -63, 38.93943466577859 -63, 66.2734375 -63 M66.2734375 -63 C66.2734375 -29.114608307974144, 66.2734375 4.770783384051711, 66.2734375 63 M66.2734375 -63 C66.2734375 -31.349705705984224, 66.2734375 0.30058858803155175, 66.2734375 63 M66.2734375 63 C19.23593765161351 63, -27.801562196772977 63, -66.2734375 63 M66.2734375 63 C33.66894042136525 63, 1.064443342730499 63, -66.2734375 63 M-66.2734375 63 C-66.2734375 13.180438863711167, -66.2734375 -36.639122272577666, -66.2734375 -63 M-66.2734375 63 C-66.2734375 16.153258644333484, -66.2734375 -30.693482711333033, -66.2734375 -63" stroke="#9370DB" stroke-width="1.3" fill="none" stroke-dasharray="0 0" style=""/></g><g class="annotation-group text" transform="translate(0, -39)"/><g class="label-group text" transform="translate(-34.25, -39)"><g class="label" style="font-weight: bolder" transform="translate(0,-12)"><foreignObject width="68.5" height="24"><div xmlns="http://www.w3.org/1999/xhtml" style="display: table-cell; white-space: nowrap; line-height: 1.5; max-width: 113px; text-align: center;"><span class="nodeLabel markdown-node-label" style=""><p>ApiClient</p></span></div></foreignObject></g></g><g class="members-group text" transform="translate(-54.2734375, 9)"/><g class="methods-group text" transform="translate(-54.2734375, 39)"><g class="label" style="" transform="translate(0,-12)"><foreignObject width="74.296875" height="24"><div xmlns="http://www.w3.org/1999/xhtml" style="display: table-cell; white-space: nowrap; line-height: 1.5; max-width: 120px; text-align: center;"><span class="nodeLabel markdown-node-label" style=""><p>+request()</p></span></div></foreignObject></g></g><g class="divider" style=""><path d="M-66.2734375 -15 C-34.725382690132214 -15, -3.1773278802644285 -15, 66.2734375 -15 M-66.2734375 -15 C-29.607045768160766 -15, 7.059345963678467 -15, 66.2734375 -15" stroke="#9370DB" stroke-width="1.3" fill="none" stroke-dasharray="0 0" style=""/></g><g class="divider" style=""><path d="M-66.2734375 9 C-31.005136858058222 9, 4.263163783883556 9, 66.2734375 9 M-66.2734375 9 C-33.10499717072789 9, 0.06344315854421723 9, 66.2734375 9" stroke="#9370DB" stroke-width="1.3" fill="none" stroke-dasharray="0 0" style=""/></g></g><g class="node default" id="classId-IService-2" transform="translate(77.734375, 83)"><g class="basic label-container"><path d="M-69.734375 -75 L69.734375 -75 L69.734375 75 L-69.734375 75" stroke="none" stroke-width="0" fill="#ECECFF" style=""/><path d="M-69.734375 -75 C-27.57210406886356 -75, 14.59016686227288 -75, 69.734375 -75 M-69.734375 -75 C-20.11349986074387 -75, 29.507375278512257 -75, 69.734375 -75 M69.734375 -75 C69.734375 -35.822829643498764, 69.734375 3.354340713002472, 69.734375 75 M69.734375 -75 C69.734375 -35.28579860364477, 69.734375 4.4284027927104574, 69.734375 75 M69.734375 75 C26.239367416749452 75, -17.255640166501095 75, -69.734375 75 M69.734375 75 C36.322015133950885 75, 2.909655267901769 75, -69.734375 75 M-69.734375 75 C-69.734375 25.395968940798355, -69.734375 -24.20806211840329, -69.734375 -75 M-69.734375 75 C-69.734375 36.52448650557353, -69.734375 -1.951026988852945, -69.734375 -75" stroke="#9370DB" stroke-width="1.3" fill="none" stroke-dasharray="0 0" style=""/></g><g class="annotation-group text" transform="translate(-41.171875, -51)"><g class="label" style="" transform="translate(0,-12)"><foreignObject width="82.34375" height="24"><div xmlns="http://www.w3.org/1999/xhtml" style="display: table-cell; white-space: nowrap; line-height: 1.5; max-width: 122px; text-align: center;"><span class="nodeLabel markdown-node-label" style=""><p>«interface»</p></span></div></foreignObject></g></g><g class="label-group text" transform="translate(-29.8828125, -27)"><g class="label" style="font-weight: bolder" transform="translate(0,-12)"><foreignObject width="59.765625" height="24"><div xmlns="http://www.w3.org/1999/xhtml" style="display: table-cell; white-space: nowrap; line-height: 1.5; max-width: 103px; text-align: center;"><span class="nodeLabel markdown-node-label" style=""><p>IService</p></span></div></foreignObject></g></g><g class="members-group text" transform="translate(-57.734375, 21)"/><g class="methods-group text" transform="translate(-57.734375, 51)"><g class="label" style="" transform="translate(0,-12)"><foreignObject width="74.296875" height="24"><div xmlns="http://www.w3.org/1999/xhtml" style="display: table-cell; white-space: nowrap; line-height: 1.5; max-width: 120px; text-align: center;"><span class="nodeLabel markdown-node-label" style=""><p>+request()</p></span></div></foreignObject></g></g><g class="divider" style=""><path d="M-69.734375 -3 C-38.54591365393148 -3, -7.35745230786295 -3, 69.734375 -3 M-69.734375 -3 C-39.273176499737275 -3, -8.81197799947455 -3, 69.734375 -3" stroke="#9370DB" stroke-width="1.3" fill="none" stroke-dasharray="0 0" style=""/></g><g class="divider" style=""><path d="M-69.734375 21 C-22.050795624156315 21, 25.63278375168737 21, 69.734375 21 M-69.734375 21 C-37.93422070257277 21, -6.134066405145546 21, 69.734375 21" stroke="#9370DB" stroke-width="1.3" fill="none" stroke-dasharray="0 0" style=""/></g></g></g></g></g></svg>